<svg xmlns="http://www.w3.org/2000/svg" viewBox="0 0 100 100">
  <style>
    path, text {
      fill: #333;
    }
    @media (prefers-color-scheme: dark) {
      path, text {
        fill: #fff;
      }
    }
  </style>
  
  <!-- GitHub 猫形轮廓 -->
  <path d="M50 5C25.2 5 5 25.2 5 50c0 19.9 12.9 36.7 30.8 42.6 2.3.4 3.1-1 3.1-2.2v-7.6c-12.5 2.7-15.2-6-15.2-6-2-5.2-5-6.6-5-6.6-4.1-2.8.3-2.7.3-2.7 4.5.3 6.9 4.6 6.9 4.6 4 6.9 10.5 4.9 13.1 3.7.4-2.9 1.6-4.9 2.9-6-10-1.1-20.5-5-20.5-22.3 0-4.9 1.8-9 4.6-12.1-.5-1.1-2-5.7.4-11.9 0 0 3.8-1.2 12.4 4.6 3.6-1 7.4-1.5 11.2-1.5 3.8 0 7.6.5 11.2 1.5 8.6-5.8 12.4-4.6 12.4-4.6 2.4 6.2.9 10.8.4 11.9 2.9 3.2 4.6 7.2 4.6 12.1 0 17.3-10.5 21.2-20.6 22.3 1.6 1.4 3.1 4.1 3.1 8.3v12.3c0 1.2.8 2.6 3.1 2.2C82.1 86.7 95 69.9 95 50c0-24.8-20.2-45-45-45z"/>
  
  <!-- CMS 文字 -->
  <text x="50" y="60" text-anchor="middle" font-size="24" font-weight="bold" font-family="Arial">CMS</text>
</svg>
